# xmcd CD database file
#
# Track frame offsets:
#	150
#	20022
#	45670
#	63691
#	80166
#	101761
#	119660
#	138396
#	153744
#	174349
#	186178
#
# Disc length: 2771 seconds
#
# Revision: 0
# Processed by: cddbd v1.5.2PL0 Copyright (c) Steve Scherf et al.
# Submitted via: CDex 1.70beta2
#
DISCID=a10ad10b
DTITLE=Karen Ritchey - Because He Promised (Kyle's Song)
DYEAR=1900
DGENRE=Christian
TTITLE0=Look For Me
TTITLE1=Such A Time As This
TTITLE2=Hold Me
TTITLE3=Because He Promised (Kyle's Song)
TTITLE4=An Unexpected Cross
TTITLE5=I Felt Your Prayers
TTITLE6=Hannah Prayed
TTITLE7=You Can Still Find a Friend In The Lord
TTITLE8=Sweet Peace
TTITLE9=What A Day That Will Be
TTITLE10=I Rest My Case At The Cross
EXTD=
EXTT0=
EXTT1=
EXTT2=
EXTT3=
EXTT4=
EXTT5=
EXTT6=
EXTT7=
EXTT8=
EXTT9=
EXTT10=
PLAYORDER=
